<svg width="66" height="66" viewBox="0 0 66 66" fill="none" xmlns="http://www.w3.org/2000/svg">
<rect width="66" height="66" rx="16" fill="#272A39"/>
<path d="M6.74801 52.2051C6.59968 52.0011 6.64478 51.7155 6.84876 51.5672L31.963 33.3042C32.167 33.1558 32.4526 33.2009 32.6009 33.4049C32.7492 33.6089 32.7041 33.8945 32.5001 34.0428L7.38591 52.3058C7.18193 52.4542 6.89633 52.4091 6.74801 52.2051Z" fill="white"/>
<path d="M19.5153 57.1048C19.2938 56.9842 19.2119 56.7069 19.3324 56.4854L31.848 33.4799C31.9685 33.2583 32.2458 33.1764 32.4674 33.297C32.6889 33.4175 32.7708 33.6948 32.6503 33.9163L20.1347 56.9219C20.0142 57.1434 19.7369 57.2253 19.5153 57.1048Z" fill="white"/>
</svg>
