<svg width="126" height="14" viewBox="0 0 126 14" fill="none" xmlns="http://www.w3.org/2000/svg">
<path fill-rule="evenodd" clip-rule="evenodd" d="M38.615 2.03295C38.615 1.3999 38.1375 0.886719 37.5484 0.886719H36.4817C35.8926 0.886719 35.415 1.3999 35.415 2.03295V11.9669C35.415 12.5999 35.8926 13.1131 36.4817 13.1131H37.5484C38.1375 13.1131 38.615 12.5999 38.615 11.9669V2.03295ZM31.1809 3.332H32.2476C32.8367 3.332 33.3143 3.8575 33.3143 4.50574V11.9394C33.3143 12.5876 32.8367 13.1131 32.2476 13.1131H31.1809C30.5918 13.1131 30.1143 12.5876 30.1143 11.9394V4.50574C30.1143 3.8575 30.5918 3.332 31.1809 3.332ZM26.8492 5.98105H25.7825C25.1934 5.98105 24.7158 6.51324 24.7158 7.16973V11.9244C24.7158 12.5809 25.1934 13.1131 25.7825 13.1131H26.8492C27.4383 13.1131 27.9158 12.5809 27.9158 11.9244V7.16973C27.9158 6.51324 27.4383 5.98105 26.8492 5.98105ZM21.5484 8.42634H20.4817C19.8926 8.42634 19.415 8.95093 19.415 9.59804V11.9414C19.415 12.5885 19.8926 13.1131 20.4817 13.1131H21.5484C22.1375 13.1131 22.615 12.5885 22.615 11.9414V9.59804C22.615 8.95093 22.1375 8.42634 21.5484 8.42634Z" fill="white"/>
<path fill-rule="evenodd" clip-rule="evenodd" d="M54.1865 3.30222C56.6736 3.30232 59.0657 4.22441 60.8682 5.87789C61.0039 6.00554 61.2209 6.00393 61.3545 5.87428L62.652 4.61081C62.7197 4.54505 62.7575 4.45597 62.7569 4.36329C62.7563 4.27061 62.7175 4.18197 62.649 4.11697C57.918 -0.257741 50.4543 -0.257741 45.7233 4.11697C45.6548 4.18192 45.6159 4.27054 45.6152 4.36322C45.6146 4.4559 45.6523 4.545 45.7199 4.61081L47.0178 5.87428C47.1514 6.00413 47.3685 6.00574 47.5042 5.87789C49.3069 4.2243 51.6992 3.30221 54.1865 3.30222ZM54.1832 7.5225C55.5405 7.52241 56.8494 8.03415 57.8555 8.95828C57.9916 9.08943 58.2059 9.08659 58.3386 8.95187L59.6259 7.63256C59.6937 7.56336 59.7313 7.46948 59.7303 7.37193C59.7293 7.27438 59.6898 7.1813 59.6207 7.11351C56.5568 4.22266 51.8121 4.22266 48.7483 7.11351C48.6791 7.1813 48.6396 7.27443 48.6387 7.37201C48.6378 7.46959 48.6755 7.56346 48.7435 7.63256L50.0304 8.95187C50.163 9.08659 50.3774 9.08943 50.5135 8.95828C51.5189 8.03476 52.8268 7.52307 54.1832 7.5225ZM56.7076 10.316C56.7095 10.4214 56.6725 10.523 56.6052 10.5968L54.4285 13.0515C54.3647 13.1236 54.2777 13.1642 54.1869 13.1642C54.0962 13.1642 54.0092 13.1236 53.9454 13.0515L51.7683 10.5968C51.7011 10.5229 51.6641 10.4213 51.6661 10.316C51.6681 10.2106 51.7089 10.1108 51.7789 10.0402C53.169 8.72634 55.2049 8.72634 56.595 10.0402C56.6649 10.1109 56.7057 10.2107 56.7076 10.316Z" fill="white"/>
<rect opacity="0.35" x="70.2568" y="1" width="24" height="12" rx="3.8" stroke="white"/>
<path opacity="0.4" d="M95.7568 5.28125V9.35672C96.5616 9.01155 97.0849 8.20859 97.0849 7.31899C97.0849 6.42938 96.5616 5.62642 95.7568 5.28125Z" fill="white"/>
<rect x="71.7568" y="2.5" width="21" height="9" rx="2.5" fill="white"/>
</svg>
