<svg width="66" height="66" viewBox="0 0 66 66" fill="none" xmlns="http://www.w3.org/2000/svg">
<rect width="66" height="66" rx="16" fill="#41E75B"/>
<path d="M46.5125 19.4106C44.7551 17.636 42.662 16.2289 40.3553 15.2713C38.0485 14.3137 35.5743 13.8248 33.0767 13.8331C22.6117 13.8331 14.0825 22.3623 14.0825 32.8273C14.0825 36.1814 14.9642 39.4398 16.6125 42.3148L13.9292 52.1664L23.9917 49.5215C26.7709 51.0356 29.895 51.8406 33.0767 51.8406C43.5417 51.8406 52.0709 43.3114 52.0709 32.8464C52.0709 27.7673 50.0967 22.9948 46.5125 19.4106ZM33.0767 48.6206C30.24 48.6206 27.4609 47.8539 25.0267 46.4164L24.4517 46.0714L18.4717 47.6431L20.0625 41.8164L19.6792 41.2223C18.1028 38.7058 17.266 35.7967 17.2642 32.8273C17.2642 24.1256 24.3559 17.0339 33.0575 17.0339C37.2742 17.0339 41.2417 18.6823 44.2125 21.6723C45.6838 23.1364 46.8497 24.878 47.6426 26.7962C48.4356 28.7143 48.8397 30.7709 48.8317 32.8464C48.87 41.5481 41.7784 48.6206 33.0767 48.6206ZM41.74 36.8139C41.2609 36.5839 38.9225 35.4339 38.5009 35.2614C38.06 35.1081 37.7534 35.0314 37.4275 35.4914C37.1017 35.9706 36.2009 37.0439 35.9325 37.3506C35.6642 37.6764 35.3767 37.7148 34.8975 37.4656C34.4184 37.2356 32.885 36.7181 31.0834 35.1081C29.665 33.8431 28.7259 32.2906 28.4384 31.8114C28.17 31.3323 28.4 31.0831 28.6492 30.8339C28.86 30.6231 29.1284 30.2781 29.3584 30.0098C29.5884 29.7414 29.6842 29.5306 29.8375 29.2239C29.9909 28.8981 29.9142 28.6298 29.7992 28.3998C29.6842 28.1698 28.7259 25.8314 28.3425 24.8731C27.9592 23.9531 27.5567 24.0681 27.2692 24.0489H26.3492C26.0234 24.0489 25.525 24.1639 25.0842 24.6431C24.6625 25.1223 23.4359 26.2723 23.4359 28.6106C23.4359 30.9489 25.1417 33.2106 25.3717 33.5173C25.6017 33.8431 28.7259 38.6348 33.4792 40.6856C34.61 41.1839 35.4917 41.4714 36.1817 41.6823C37.3125 42.0464 38.3475 41.9889 39.1717 41.8739C40.0917 41.7398 41.9892 40.7239 42.3725 39.6123C42.775 38.5006 42.775 37.5614 42.6409 37.3506C42.5067 37.1398 42.2192 37.0439 41.74 36.8139Z" fill="white"/>
</svg>
